HIERARCHY
ROOT Hips
{
  OFFSET 5.13426 39.0111 22.7525
  CHANNELS 6 Xposition Yposition Zposition Zrotation Xrotation Yrotation
  JOINT LeftHip
  {
    OFFSET 3.43 -2.27374e-013 1.95399e-014
    CHANNELS 6 Xposition Yposition Zposition Zrotation Xrotation Yrotation
    JOINT LeftKnee
    {
      OFFSET -2.13163e-014 -18.47 -3.55271e-015
      CHANNELS 6 Xposition Yposition Zposition Zrotation Xrotation Yrotation
      JOINT LeftAnkle
      {
        OFFSET -7.10543e-015 -17.95 2.13163e-014
        CHANNELS 6 Xposition Yposition Zposition Zrotation Xrotation Yrotation
        End Site
        {
          OFFSET 0 -3.12 0
        }
      }
    }
  }
  JOINT RightHip
  {
    OFFSET -3.43 -2.84217e-013 3.37508e-014
    CHANNELS 6 Xposition Yposition Zposition Zrotation Xrotation Yrotation
    JOINT RightKnee
    {
      OFFSET -1.77636e-014 -18.47 4.61853e-014
      CHANNELS 6 Xposition Yposition Zposition Zrotation Xrotation Yrotation
      JOINT RightAnkle
      {
        OFFSET 1.42109e-014 -17.95 -2.4869e-014
        CHANNELS 6 Xposition Yposition Zposition Zrotation Xrotation Yrotation
        End Site
        {
          OFFSET 0 -3.12 0
        }
      }
    }
  }
  JOINT Chest
  {
    OFFSET 8.52651e-014 4.57 2.57572e-014
    CHANNELS 6 Xposition Yposition Zposition Zrotation Xrotation Yrotation
    JOINT Chest2
    {
      OFFSET -7.10543e-015 6.57 -4.44089e-015
      CHANNELS 6 Xposition Yposition Zposition Zrotation Xrotation Yrotation
      JOINT LeftCollar
      {
        OFFSET 1.06 4.19 1.76
        CHANNELS 6 Xposition Yposition Zposition Zrotation Xrotation Yrotation
        JOINT LeftShoulder
        {
          OFFSET 5.81 9.23706e-014 -1.42109e-014
          CHANNELS 6 Xposition Yposition Zposition Zrotation Xrotation Yrotation
          JOINT LeftElbow
          {
            OFFSET -4.61853e-014 -12.08 1.42109e-014
            CHANNELS 6 Xposition Yposition Zposition Zrotation Xrotation Yrotation
            JOINT LeftWrist
            {
              OFFSET -3.55271e-015 -9.82 -7.10543e-015
              CHANNELS 6 Xposition Yposition Zposition Zrotation Xrotation Yrotation
              End Site
              {
                OFFSET 0 -7.37 0
              }
            }
          }
        }
      }
      JOINT RightCollar
      {
        OFFSET -1.06 4.19 1.76
        CHANNELS 6 Xposition Yposition Zposition Zrotation Xrotation Yrotation
        JOINT RightShoulder
        {
          OFFSET -6.06 -7.10543e-015 1.06581e-014
          CHANNELS 6 Xposition Yposition Zposition Zrotation Xrotation Yrotation
          JOINT RightElbow
          {
            OFFSET -7.10543e-015 -11.08 -1.77636e-015
            CHANNELS 6 Xposition Yposition Zposition Zrotation Xrotation Yrotation
            JOINT RightWrist
            {
              OFFSET 7.10543e-015 -9.82 -1.42109e-014
              CHANNELS 6 Xposition Yposition Zposition Zrotation Xrotation Yrotation
              End Site
              {
                OFFSET 0 -7.14001 0
              }
            }
          }
        }
      }
      JOINT Neck
      {
        OFFSET -1.42109e-014 4.05 -7.10543e-015
        CHANNELS 6 Xposition Yposition Zposition Zrotation Xrotation Yrotation
        JOINT Head
        {
          OFFSET 7.10543e-015 5.19 0
          CHANNELS 6 Xposition Yposition Zposition Zrotation Xrotation Yrotation
          End Site
          {
            OFFSET 0 4.14001 0
          }
        }
      }
    }
  }
}
MOTION
Frames:	4
Frame Time:	0.0333333
17.0255 36.3594 -7.67954 1.30461 -13.8541 -0.721429 3.43 1.56319e-013 4.54081e-014 11.1614 -6.93242 11.9496 -2.13163e-014 -18.47 -3.55271e-015 6.23921 49.3393 11.8752 -7.10543e-015 -17.95 -2.75335e-014 -15.7805 -21.7225 -3.04635 -3.43 4.26326e-014 5.77316e-015 -16.1636 -7.01986 -12.2801 2.93099e-014 -18.47 -4.44089e-015 -6.63948 47.4541 1.73961 -2.22045e-014 -17.95 -1.06581e-014 14.6864 -22.8417 2.98253 7.10543e-014 4.57 3.10862e-014 -0.821305 3.87322 -4.22845 -7.10543e-015 6.57 -4.44089e-015 -0.357149 3.55427 -3.87036 1.06 4.19 1.76 -0.774537 0.726639 -9.29538 5.81 -7.10543e-015 4.79616e-014 92.152 -42.4846 13.0354 7.10543e-015 -12.08 0 -3.67493 -35.3612 -44.4866 -3.55271e-015 -9.82 -7.10543e-015 9.80533 -5.50908 0.472914 -1.06 4.19 1.76 -5.0439 -0.337949 17.2104 -6.06 2.84217e-014 6.66134e-015 -80.2292 -49.5132 -16.352 3.55271e-014 -11.08 0 4.52372 -35.2662 38.3896 7.10543e-015 -9.82 7.10543e-015 -4.74957 -4.30303 -0.178537 -1.42109e-014 4.05 -7.10543e-015 0.354585 10.6488 -0.419667 7.10543e-015 5.19 0 -0.0874348 7.73867 0.41242 
17.0553 36.3661 -7.7245 1.70678 -13.4771 -0.615825 3.43 -1.06581e-013 4.45201e-014 10.6702 -7.34277 11.7585 -2.13163e-014 -18.47 -3.55271e-015 6.00711 49.2521 12.3614 -7.10543e-015 -17.95 -2.73933e-014 -15.6517 -21.598 -3.00345 -3.43 -9.23706e-014 4.02138e-015 -16.6376 -7.47244 -12.4825 2.93478e-014 -18.47 -4.78e-015 -6.66246 47.4811 1.8454 -2.22378e-014 -17.95 -1.12694e-014 14.7778 -22.7695 2.99156 6.91846e-014 4.57 2.96559e-014 -1.13248 3.58604 -4.27458 -7.10543e-015 6.57 -4.44089e-015 -0.629351 3.29107 -3.94601 1.06 4.19 1.76 -0.425805 0.686613 -9.23413 5.81 -1.02482e-014 4.75139e-014 91.6878 -42.4124 12.8291 4.9738e-014 -12.08 -1.03805e-016 -3.67206 -35.548 -44.6453 -3.55271e-015 -9.82 -7.10543e-015 9.73589 -5.49501 0.468348 -1.06 4.19 1.76 -5.18829 -0.362139 17.1572 -6.06 2.84379e-014 6.73182e-015 -79.7528 -49.5628 -16.1215 -2.84217e-014 -11.08 4.09536e-016 4.52575 -35.512 38.0818 7.10543e-015 -9.82 7.06159e-015 -4.69356 -4.04827 -0.165975 -1.42109e-014 4.05 -7.10543e-015 0.546459 10.6201 -0.431593 7.10543e-015 5.19 0 -0.323098 7.82013 0.541036 
17.0767 36.359 -7.75234 1.70931 -13.4771 -0.650444 3.43 -1.13687e-013 4.2871e-014 10.6162 -7.40637 11.731 -2.13163e-014 -18.47 -3.55271e-015 6.00382 49.3118 12.4666 -7.10543e-015 -17.95 -2.71489e-014 -15.692 -21.588 -3.00986 -3.43 -1.37384e-013 7.90093e-016 -16.6644 -7.56891 -12.4435 2.96271e-014 -18.47 -5.56569e-015 -6.71343 47.5405 1.84121 -2.22794e-014 -17.95 -1.21042e-014 14.7863 -22.7292 2.98786 6.62665e-014 4.57 2.77289e-014 -1.14188 3.55592 -4.27512 -7.10543e-015 6.57 -4.44089e-015 -0.638585 3.26524 -3.94613 1.06 4.19 1.76 -0.421674 0.686206 -9.27024 5.81 -1.6814e-014 4.66273e-014 91.6314 -42.428 12.7012 2.75335e-014 -12.08 -3.54517e-016 -3.70843 -35.4567 -44.905 -3.55271e-015 -9.82 -7.10543e-015 9.87808 -5.51108 0.476613 -1.06 4.19 1.76 -4.96743 -0.319924 17.1286 -6.06 2.87609e-014 6.94071e-015 -79.9961 -49.594 -16.1714 -3.55271e-014 -11.08 1.23768e-015 4.5078 -35.4214 38.5048 7.10543e-015 -9.82 7.01677e-015 -4.95599 -4.14253 -0.17935 -1.42109e-014 4.05 -7.10543e-015 0.565006 10.6281 -0.440939 7.10543e-015 5.19 0 -0.268484 7.77639 0.519823 
17.1005 36.3635 -7.78335 1.67711 -13.501 -0.818629 3.43 0 4.04741e-014 10.5951 -7.3635 11.7683 -2.13163e-014 -18.47 -3.55271e-015 5.9313 49.2838 12.6252 -7.10543e-015 -17.95 -2.68008e-014 -15.7144 -21.5617 -3.01044 -3.43 -1.58102e-013 -3.90473e-015 -16.6595 -7.63826 -12.3841 3.01459e-014 -18.47 -6.79455e-015 -6.75739 47.4732 1.98925 -2.23294e-014 -17.95 -1.31604e-014 14.7698 -22.6258 2.97056 6.23128e-014 4.57 2.53142e-014 -1.08931 3.56726 -4.20655 -7.10543e-015 6.57 -4.44089e-015 -0.596234 3.27538 -3.87861 1.06 4.19 1.76 -0.476186 0.692354 -9.23493 5.81 -2.66541e-014 4.53081e-014 91.7109 -42.5456 12.5617 -2.30926e-014 -12.08 -7.50267e-016 -3.83718 -35.2682 -44.7832 -3.55271e-015 -9.82 -7.10543e-015 10.0625 -5.45805 0.480877 -1.06 4.19 1.76 -5.19424 -0.361662 17.1249 -6.06 2.9386e-014 7.2871e-015 -79.8368 -49.595 -16.2167 -2.26321e-014 -11.08 2.48e-015 4.52566 -35.4448 38.1107 7.10543e-015 -9.82 6.97104e-015 -4.91693 -4.11565 -0.17678 -1.42109e-014 4.05 -7.10543e-015 0.530407 10.6179 -0.416201 7.10543e-015 5.19 0 -0.314003 7.6318 0.516215 
